<svg width="250" height="252" viewBox="0 0 250 252" xmlns="http://www.w3.org/2000/svg">
<path fill-rule="evenodd" clip-rule="evenodd" d="M114.402 0.202166C106.5 0.958735 93.4674 3.69531 85.8329 6.20149C42.5727 20.3999 9.37012 58.3941 1.42066 102.796L0 110.734H30.6102H61.2203L62.0817 107.502C64.5086 98.3919 71.2279 87.2038 78.8829 79.5241C94.2506 64.1076 117.018 57.3243 138.528 61.7535C160.833 66.3469 179.988 83.5982 187.213 105.601L188.897 110.734H219.448H250L249.286 105.981C247.275 92.5896 241.605 76.326 234.773 64.3509C215.649 30.8322 183.39 8.05908 145.896 1.60809C138.985 0.418871 120.672 -0.398527 114.402 0.202166ZM119.326 84.9197C110.323 86.0831 102.208 90.2104 95.4967 97.0393C79.682 113.133 79.8217 139.197 95.8086 155.215C103.711 163.133 113.687 167.237 125.026 167.237C136.399 167.237 146.209 163.181 154.201 155.173C162.224 147.136 166.187 137.468 166.187 125.941C166.187 100.661 144.491 81.6683 119.326 84.9197ZM0.694392 145.521C5.14761 175.186 21.8578 204.24 45.5688 223.545C89.789 259.547 151.087 261.568 198.075 228.573C206.63 222.565 220.983 208.32 226.951 199.912C238.504 183.638 246.536 164.216 249.286 145.901L250 141.148H219.449H188.898L186.929 147.075C183.845 156.351 178.865 164.162 171.018 172.023C162.878 180.178 155.3 184.925 144.758 188.472C137.807 190.81 137.099 190.897 125.026 190.892C113.323 190.887 112.082 190.747 106.054 188.74C94.6725 184.953 88.3911 181.193 79.9765 173.13C71.4867 164.996 64.6467 154.007 62.0817 144.38L61.2203 141.148H30.6291H0.0379472L0.694392 145.521Z"/>
</svg>
